<mxfile host="app.diagrams.net" agent="Mozilla/5.0 (Windows NT 10.0; Win64; x64) AppleWebKit/537.36 (KHTML, like Gecko) Chrome/137.0.0.0 Safari/537.36 Edg/137.0.0.0" version="27.1.6">
  <diagram name="Attack Fact Radial Attribute Tree" id="nJ3GPCvLtqHHLxzf1IwV">
    <mxGraphModel dx="1947" dy="460" grid="1" gridSize="10" guides="1" tooltips="1" connect="1" arrows="1" fold="1" page="1" pageScale="1" pageWidth="1169" pageHeight="827" background="none" math="0" shadow="0">
      <root>
        <mxCell id="0" />
        <mxCell id="1" parent="0" />
        <mxCell id="p2l66sYFrq5DHjrUDDRs-10" value="propvalue_category" style="text;html=1;align=center;verticalAlign=middle;resizable=0;points=[];autosize=1;strokeColor=none;fillColor=none;" parent="1" vertex="1">
          <mxGeometry y="595" width="130" height="30" as="geometry" />
        </mxCell>
        <mxCell id="p2l66sYFrq5DHjrUDDRs-18" value="property" style="text;html=1;align=center;verticalAlign=middle;resizable=0;points=[];autosize=1;strokeColor=none;fillColor=none;" parent="1" vertex="1">
          <mxGeometry x="20" y="680" width="70" height="30" as="geometry" />
        </mxCell>
        <mxCell id="p2l66sYFrq5DHjrUDDRs-35" value="Property" style="text;html=1;align=center;verticalAlign=middle;resizable=0;points=[];autosize=1;strokeColor=none;fillColor=none;" parent="1" vertex="1">
          <mxGeometry x="300" y="530" width="70" height="30" as="geometry" />
        </mxCell>
        <mxCell id="p2l66sYFrq5DHjrUDDRs-39" value="Attack" style="text;html=1;align=center;verticalAlign=middle;resizable=0;points=[];autosize=1;strokeColor=none;fillColor=none;" parent="1" vertex="1">
          <mxGeometry x="675" y="535" width="60" height="30" as="geometry" />
        </mxCell>
        <mxCell id="p2l66sYFrq5DHjrUDDRs-48" value="" style="endArrow=classic;html=1;rounded=0;entryX=0.5;entryY=0;entryDx=0;entryDy=0;exitX=0.5;exitY=1;exitDx=0;exitDy=0;" parent="1" source="whtN-cNZq2P0k4Z80Wnq-111" edge="1">
          <mxGeometry width="50" height="50" relative="1" as="geometry">
            <mxPoint x="550" y="470" as="sourcePoint" />
            <mxPoint x="510" y="610" as="targetPoint" />
          </mxGeometry>
        </mxCell>
        <mxCell id="p2l66sYFrq5DHjrUDDRs-52" value="&lt;span style=&quot;font-weight: 700;&quot;&gt;&lt;font style=&quot;font-size: 10px;&quot;&gt;incidents&lt;/font&gt;&lt;/span&gt;" style="text;html=1;align=center;verticalAlign=middle;resizable=0;points=[];autosize=1;strokeColor=none;fillColor=none;" parent="1" vertex="1">
          <mxGeometry x="485" y="505" width="70" height="30" as="geometry" />
        </mxCell>
        <mxCell id="whtN-cNZq2P0k4Z80Wnq-18" value="" style="ellipse;whiteSpace=wrap;html=1;aspect=fixed;" parent="1" vertex="1">
          <mxGeometry x="270" y="240" width="40" height="40" as="geometry" />
        </mxCell>
        <mxCell id="whtN-cNZq2P0k4Z80Wnq-19" value="" style="ellipse;whiteSpace=wrap;html=1;aspect=fixed;" parent="1" vertex="1">
          <mxGeometry x="320" y="180" width="40" height="40" as="geometry" />
        </mxCell>
        <mxCell id="whtN-cNZq2P0k4Z80Wnq-20" value="" style="ellipse;whiteSpace=wrap;html=1;aspect=fixed;" parent="1" vertex="1">
          <mxGeometry x="420" y="140" width="40" height="40" as="geometry" />
        </mxCell>
        <mxCell id="whtN-cNZq2P0k4Z80Wnq-21" value="" style="ellipse;whiteSpace=wrap;html=1;aspect=fixed;" parent="1" vertex="1">
          <mxGeometry x="490" y="148" width="40" height="40" as="geometry" />
        </mxCell>
        <mxCell id="whtN-cNZq2P0k4Z80Wnq-22" value="" style="ellipse;whiteSpace=wrap;html=1;aspect=fixed;" parent="1" vertex="1">
          <mxGeometry x="540" y="188" width="40" height="40" as="geometry" />
        </mxCell>
        <mxCell id="whtN-cNZq2P0k4Z80Wnq-23" value="extended" style="text;html=1;align=center;verticalAlign=middle;resizable=0;points=[];autosize=1;strokeColor=none;fillColor=none;" parent="1" vertex="1">
          <mxGeometry x="500" y="118" width="70" height="30" as="geometry" />
        </mxCell>
        <mxCell id="whtN-cNZq2P0k4Z80Wnq-25" value="day" style="text;html=1;align=center;verticalAlign=middle;resizable=0;points=[];autosize=1;strokeColor=none;fillColor=none;" parent="1" vertex="1">
          <mxGeometry x="420" y="108" width="40" height="30" as="geometry" />
        </mxCell>
        <mxCell id="whtN-cNZq2P0k4Z80Wnq-26" value="month" style="text;html=1;align=center;verticalAlign=middle;resizable=0;points=[];autosize=1;strokeColor=none;fillColor=none;" parent="1" vertex="1">
          <mxGeometry x="300" y="158" width="60" height="30" as="geometry" />
        </mxCell>
        <mxCell id="whtN-cNZq2P0k4Z80Wnq-27" value="year" style="text;html=1;align=center;verticalAlign=middle;resizable=0;points=[];autosize=1;strokeColor=none;fillColor=none;" parent="1" vertex="1">
          <mxGeometry x="240" y="220" width="50" height="30" as="geometry" />
        </mxCell>
        <mxCell id="whtN-cNZq2P0k4Z80Wnq-33" value="&lt;span style=&quot;color: rgb(0, 0, 0); font-family: Helvetica; font-size: 12px; font-style: normal; font-variant-ligatures: normal; font-variant-caps: normal; font-weight: 400; letter-spacing: normal; orphans: 2; text-align: center; text-indent: 0px; text-transform: none; widows: 2; word-spacing: 0px; -webkit-text-stroke-width: 0px; white-space: nowrap; background-color: rgb(236, 236, 236); text-decoration-thickness: initial; text-decoration-style: initial; text-decoration-color: initial; float: none; display: inline !important;&quot;&gt;high_impact&lt;/span&gt;" style="text;whiteSpace=wrap;html=1;" parent="1" vertex="1">
          <mxGeometry x="590" y="150" width="60" height="40" as="geometry" />
        </mxCell>
        <mxCell id="whtN-cNZq2P0k4Z80Wnq-34" value="" style="ellipse;whiteSpace=wrap;html=1;aspect=fixed;" parent="1" vertex="1">
          <mxGeometry x="360" y="130" width="40" height="40" as="geometry" />
        </mxCell>
        <mxCell id="whtN-cNZq2P0k4Z80Wnq-35" value="" style="ellipse;whiteSpace=wrap;html=1;aspect=fixed;" parent="1" vertex="1">
          <mxGeometry x="230" y="295" width="40" height="40" as="geometry" />
        </mxCell>
        <mxCell id="whtN-cNZq2P0k4Z80Wnq-36" value="success" style="text;html=1;align=center;verticalAlign=middle;resizable=0;points=[];autosize=1;strokeColor=none;fillColor=none;" parent="1" vertex="1">
          <mxGeometry x="330" y="108" width="70" height="30" as="geometry" />
        </mxCell>
        <mxCell id="whtN-cNZq2P0k4Z80Wnq-37" value="summary" style="text;html=1;align=center;verticalAlign=middle;resizable=0;points=[];autosize=1;strokeColor=none;fillColor=none;" parent="1" vertex="1">
          <mxGeometry x="185" y="268" width="70" height="30" as="geometry" />
        </mxCell>
        <mxCell id="whtN-cNZq2P0k4Z80Wnq-38" value="" style="endArrow=none;html=1;rounded=0;exitX=0.5;exitY=0;exitDx=0;exitDy=0;entryX=0;entryY=1;entryDx=0;entryDy=0;" parent="1" target="whtN-cNZq2P0k4Z80Wnq-22" edge="1">
          <mxGeometry width="50" height="50" relative="1" as="geometry">
            <mxPoint x="485" y="490" as="sourcePoint" />
            <mxPoint x="550" y="230" as="targetPoint" />
          </mxGeometry>
        </mxCell>
        <mxCell id="whtN-cNZq2P0k4Z80Wnq-39" value="" style="endArrow=none;html=1;rounded=0;entryX=0;entryY=1;entryDx=0;entryDy=0;" parent="1" target="whtN-cNZq2P0k4Z80Wnq-21" edge="1">
          <mxGeometry width="50" height="50" relative="1" as="geometry">
            <mxPoint x="480" y="490" as="sourcePoint" />
            <mxPoint x="481" y="300" as="targetPoint" />
          </mxGeometry>
        </mxCell>
        <mxCell id="whtN-cNZq2P0k4Z80Wnq-40" value="" style="endArrow=none;html=1;rounded=0;exitX=0.353;exitY=0.031;exitDx=0;exitDy=0;entryX=0.5;entryY=1;entryDx=0;entryDy=0;exitPerimeter=0;" parent="1" target="whtN-cNZq2P0k4Z80Wnq-20" edge="1">
          <mxGeometry width="50" height="50" relative="1" as="geometry">
            <mxPoint x="474.71000000000004" y="490.6199999999999" as="sourcePoint" />
            <mxPoint x="451" y="250" as="targetPoint" />
          </mxGeometry>
        </mxCell>
        <mxCell id="whtN-cNZq2P0k4Z80Wnq-41" value="" style="endArrow=none;html=1;rounded=0;exitX=0.339;exitY=0.174;exitDx=0;exitDy=0;entryX=0.5;entryY=1;entryDx=0;entryDy=0;exitPerimeter=0;" parent="1" target="whtN-cNZq2P0k4Z80Wnq-34" edge="1">
          <mxGeometry width="50" height="50" relative="1" as="geometry">
            <mxPoint x="473.73" y="493.48" as="sourcePoint" />
            <mxPoint x="421" y="300" as="targetPoint" />
          </mxGeometry>
        </mxCell>
        <mxCell id="whtN-cNZq2P0k4Z80Wnq-42" value="" style="endArrow=none;html=1;rounded=0;entryX=0.5;entryY=1;entryDx=0;entryDy=0;exitX=0.271;exitY=0.174;exitDx=0;exitDy=0;exitPerimeter=0;" parent="1" target="whtN-cNZq2P0k4Z80Wnq-19" edge="1">
          <mxGeometry width="50" height="50" relative="1" as="geometry">
            <mxPoint x="468.9699999999998" y="493.48" as="sourcePoint" />
            <mxPoint x="411" y="340" as="targetPoint" />
          </mxGeometry>
        </mxCell>
        <mxCell id="whtN-cNZq2P0k4Z80Wnq-43" value="" style="endArrow=none;html=1;rounded=0;entryX=1;entryY=1;entryDx=0;entryDy=0;exitX=0.149;exitY=0.126;exitDx=0;exitDy=0;exitPerimeter=0;" parent="1" target="whtN-cNZq2P0k4Z80Wnq-18" edge="1">
          <mxGeometry width="50" height="50" relative="1" as="geometry">
            <mxPoint x="460.42999999999984" y="492.52" as="sourcePoint" />
            <mxPoint x="421" y="360" as="targetPoint" />
          </mxGeometry>
        </mxCell>
        <mxCell id="whtN-cNZq2P0k4Z80Wnq-44" value="" style="endArrow=none;html=1;rounded=0;entryX=0.5;entryY=1;entryDx=0;entryDy=0;exitX=0;exitY=0.5;exitDx=0;exitDy=0;" parent="1" target="whtN-cNZq2P0k4Z80Wnq-35" edge="1">
          <mxGeometry width="50" height="50" relative="1" as="geometry">
            <mxPoint x="450" y="500" as="sourcePoint" />
            <mxPoint x="471" y="650" as="targetPoint" />
          </mxGeometry>
        </mxCell>
        <mxCell id="whtN-cNZq2P0k4Z80Wnq-45" value="" style="ellipse;whiteSpace=wrap;html=1;aspect=fixed;" parent="1" vertex="1">
          <mxGeometry x="300" y="470" width="30" height="30" as="geometry" />
        </mxCell>
        <mxCell id="whtN-cNZq2P0k4Z80Wnq-47" value="" style="ellipse;whiteSpace=wrap;html=1;aspect=fixed;" parent="1" vertex="1">
          <mxGeometry x="70" y="527.5" width="30" height="30" as="geometry" />
        </mxCell>
        <mxCell id="whtN-cNZq2P0k4Z80Wnq-48" value="" style="ellipse;whiteSpace=wrap;html=1;aspect=fixed;" parent="1" vertex="1">
          <mxGeometry x="65" y="475" width="30" height="30" as="geometry" />
        </mxCell>
        <mxCell id="whtN-cNZq2P0k4Z80Wnq-49" value="" style="ellipse;whiteSpace=wrap;html=1;aspect=fixed;" parent="1" vertex="1">
          <mxGeometry x="70" y="430" width="30" height="30" as="geometry" />
        </mxCell>
        <mxCell id="whtN-cNZq2P0k4Z80Wnq-50" value="" style="ellipse;whiteSpace=wrap;html=1;aspect=fixed;" parent="1" vertex="1">
          <mxGeometry x="65" y="390" width="30" height="30" as="geometry" />
        </mxCell>
        <mxCell id="whtN-cNZq2P0k4Z80Wnq-51" value="" style="ellipse;whiteSpace=wrap;html=1;aspect=fixed;" parent="1" vertex="1">
          <mxGeometry x="60" y="340" width="30" height="30" as="geometry" />
        </mxCell>
        <mxCell id="whtN-cNZq2P0k4Z80Wnq-52" value="" style="ellipse;whiteSpace=wrap;html=1;aspect=fixed;" parent="1" vertex="1">
          <mxGeometry x="60" y="290" width="30" height="30" as="geometry" />
        </mxCell>
        <mxCell id="whtN-cNZq2P0k4Z80Wnq-53" value="&lt;span style=&quot;font-size: 10px;&quot;&gt;nwoundter&lt;/span&gt;" style="text;html=1;align=center;verticalAlign=middle;resizable=0;points=[];autosize=1;strokeColor=none;fillColor=none;" parent="1" vertex="1">
          <mxGeometry x="25" y="550" width="70" height="30" as="geometry" />
        </mxCell>
        <mxCell id="whtN-cNZq2P0k4Z80Wnq-55" value="&lt;span style=&quot;font-size: 10px;&quot;&gt;nkill&lt;/span&gt;" style="text;html=1;align=center;verticalAlign=middle;resizable=0;points=[];autosize=1;strokeColor=none;fillColor=none;" parent="1" vertex="1">
          <mxGeometry x="30" y="480" width="40" height="30" as="geometry" />
        </mxCell>
        <mxCell id="whtN-cNZq2P0k4Z80Wnq-62" value="&#xa;&lt;span style=&quot;color: rgb(0, 0, 0); font-family: Helvetica; font-size: 12px; font-style: normal; font-variant-ligatures: normal; font-variant-caps: normal; font-weight: 400; letter-spacing: normal; orphans: 2; text-align: center; text-indent: 0px; text-transform: none; widows: 2; word-spacing: 0px; -webkit-text-stroke-width: 0px; white-space: nowrap; background-color: rgb(236, 236, 236); text-decoration-thickness: initial; text-decoration-style: initial; text-decoration-color: initial; display: inline !important; float: none;&quot;&gt;nwound&lt;/span&gt;&#xa;&#xa;" style="text;html=1;align=center;verticalAlign=middle;resizable=0;points=[];autosize=1;strokeColor=none;fillColor=none;" parent="1" vertex="1">
          <mxGeometry x="10" y="430" width="70" height="60" as="geometry" />
        </mxCell>
        <mxCell id="whtN-cNZq2P0k4Z80Wnq-63" value="nkillus" style="text;html=1;align=center;verticalAlign=middle;resizable=0;points=[];autosize=1;strokeColor=none;fillColor=none;" parent="1" vertex="1">
          <mxGeometry x="10" y="400" width="60" height="30" as="geometry" />
        </mxCell>
        <mxCell id="whtN-cNZq2P0k4Z80Wnq-65" value="nwoundus" style="text;html=1;align=center;verticalAlign=middle;resizable=0;points=[];autosize=1;strokeColor=none;fillColor=none;" parent="1" vertex="1">
          <mxGeometry x="-10" y="350" width="80" height="30" as="geometry" />
        </mxCell>
        <mxCell id="whtN-cNZq2P0k4Z80Wnq-66" value="nkillter" style="text;html=1;align=center;verticalAlign=middle;resizable=0;points=[];autosize=1;strokeColor=none;fillColor=none;" parent="1" vertex="1">
          <mxGeometry y="298" width="60" height="30" as="geometry" />
        </mxCell>
        <mxCell id="whtN-cNZq2P0k4Z80Wnq-68" value="casualties" style="text;html=1;align=center;verticalAlign=middle;resizable=0;points=[];autosize=1;strokeColor=none;fillColor=none;" parent="1" vertex="1">
          <mxGeometry x="270" y="498" width="80" height="30" as="geometry" />
        </mxCell>
        <mxCell id="whtN-cNZq2P0k4Z80Wnq-72" value="" style="endArrow=none;html=1;rounded=0;" parent="1" edge="1">
          <mxGeometry width="50" height="50" relative="1" as="geometry">
            <mxPoint x="100" y="540" as="sourcePoint" />
            <mxPoint x="300" y="491" as="targetPoint" />
          </mxGeometry>
        </mxCell>
        <mxCell id="whtN-cNZq2P0k4Z80Wnq-73" value="" style="endArrow=none;html=1;rounded=0;exitX=1;exitY=0.5;exitDx=0;exitDy=0;" parent="1" source="whtN-cNZq2P0k4Z80Wnq-48" edge="1">
          <mxGeometry width="50" height="50" relative="1" as="geometry">
            <mxPoint x="170" y="499" as="sourcePoint" />
            <mxPoint x="300" y="490" as="targetPoint" />
          </mxGeometry>
        </mxCell>
        <mxCell id="whtN-cNZq2P0k4Z80Wnq-74" value="" style="endArrow=none;html=1;rounded=0;exitX=1;exitY=0.5;exitDx=0;exitDy=0;entryX=0;entryY=0.5;entryDx=0;entryDy=0;" parent="1" source="whtN-cNZq2P0k4Z80Wnq-49" target="whtN-cNZq2P0k4Z80Wnq-45" edge="1">
          <mxGeometry width="50" height="50" relative="1" as="geometry">
            <mxPoint x="170" y="459" as="sourcePoint" />
            <mxPoint x="370" y="410" as="targetPoint" />
          </mxGeometry>
        </mxCell>
        <mxCell id="whtN-cNZq2P0k4Z80Wnq-75" value="" style="endArrow=none;html=1;rounded=0;exitX=1;exitY=0.5;exitDx=0;exitDy=0;entryX=0;entryY=0;entryDx=0;entryDy=0;" parent="1" source="whtN-cNZq2P0k4Z80Wnq-50" target="whtN-cNZq2P0k4Z80Wnq-45" edge="1">
          <mxGeometry width="50" height="50" relative="1" as="geometry">
            <mxPoint x="170" y="439" as="sourcePoint" />
            <mxPoint x="370" y="390" as="targetPoint" />
          </mxGeometry>
        </mxCell>
        <mxCell id="whtN-cNZq2P0k4Z80Wnq-76" value="" style="endArrow=none;html=1;rounded=0;exitX=1;exitY=0.5;exitDx=0;exitDy=0;entryX=0.5;entryY=0;entryDx=0;entryDy=0;" parent="1" source="whtN-cNZq2P0k4Z80Wnq-51" target="whtN-cNZq2P0k4Z80Wnq-45" edge="1">
          <mxGeometry width="50" height="50" relative="1" as="geometry">
            <mxPoint x="150" y="399" as="sourcePoint" />
            <mxPoint x="350" y="350" as="targetPoint" />
          </mxGeometry>
        </mxCell>
        <mxCell id="whtN-cNZq2P0k4Z80Wnq-77" value="" style="endArrow=none;html=1;rounded=0;exitX=1;exitY=0.5;exitDx=0;exitDy=0;entryX=0.5;entryY=0;entryDx=0;entryDy=0;" parent="1" source="whtN-cNZq2P0k4Z80Wnq-52" target="whtN-cNZq2P0k4Z80Wnq-45" edge="1">
          <mxGeometry width="50" height="50" relative="1" as="geometry">
            <mxPoint x="160" y="369" as="sourcePoint" />
            <mxPoint x="360" y="320" as="targetPoint" />
          </mxGeometry>
        </mxCell>
        <mxCell id="whtN-cNZq2P0k4Z80Wnq-78" value="" style="endArrow=none;html=1;rounded=0;entryX=0;entryY=0.5;entryDx=0;entryDy=0;" parent="1" edge="1">
          <mxGeometry width="50" height="50" relative="1" as="geometry">
            <mxPoint x="330" y="490" as="sourcePoint" />
            <mxPoint x="450" y="500" as="targetPoint" />
          </mxGeometry>
        </mxCell>
        <mxCell id="whtN-cNZq2P0k4Z80Wnq-82" value="" style="ellipse;whiteSpace=wrap;html=1;aspect=fixed;" parent="1" vertex="1">
          <mxGeometry x="110" y="750" width="30" height="30" as="geometry" />
        </mxCell>
        <mxCell id="whtN-cNZq2P0k4Z80Wnq-83" value="" style="ellipse;whiteSpace=wrap;html=1;aspect=fixed;" parent="1" vertex="1">
          <mxGeometry x="60" y="700" width="30" height="30" as="geometry" />
        </mxCell>
        <mxCell id="whtN-cNZq2P0k4Z80Wnq-84" value="" style="ellipse;whiteSpace=wrap;html=1;aspect=fixed;" parent="1" vertex="1">
          <mxGeometry x="40" y="630" width="30" height="30" as="geometry" />
        </mxCell>
        <mxCell id="whtN-cNZq2P0k4Z80Wnq-85" value="&lt;br&gt;&lt;span style=&quot;color: rgb(0, 0, 0); background-color: rgb(236, 236, 236); float: none; display: inline !important;&quot;&gt;property_value&lt;/span&gt;&lt;div&gt;&lt;br&gt;&lt;/div&gt;" style="text;html=1;align=center;verticalAlign=middle;resizable=0;points=[];autosize=1;strokeColor=none;fillColor=none;" parent="1" vertex="1">
          <mxGeometry x="200" y="758" width="100" height="60" as="geometry" />
        </mxCell>
        <mxCell id="whtN-cNZq2P0k4Z80Wnq-91" value="extent" style="text;html=1;align=center;verticalAlign=middle;resizable=0;points=[];autosize=1;strokeColor=none;fillColor=none;" parent="1" vertex="1">
          <mxGeometry x="50" y="758" width="60" height="30" as="geometry" />
        </mxCell>
        <mxCell id="whtN-cNZq2P0k4Z80Wnq-92" value="" style="ellipse;whiteSpace=wrap;html=1;aspect=fixed;" parent="1" vertex="1">
          <mxGeometry x="360" y="550" width="30" height="30" as="geometry" />
        </mxCell>
        <mxCell id="whtN-cNZq2P0k4Z80Wnq-94" value="" style="endArrow=none;html=1;rounded=0;entryX=0;entryY=1;entryDx=0;entryDy=0;" parent="1" source="whtN-cNZq2P0k4Z80Wnq-80" target="whtN-cNZq2P0k4Z80Wnq-92" edge="1">
          <mxGeometry width="50" height="50" relative="1" as="geometry">
            <mxPoint x="286" y="770" as="sourcePoint" />
            <mxPoint x="510" y="690" as="targetPoint" />
          </mxGeometry>
        </mxCell>
        <mxCell id="whtN-cNZq2P0k4Z80Wnq-96" value="" style="endArrow=none;html=1;rounded=0;exitX=1;exitY=0;exitDx=0;exitDy=0;entryX=0.857;entryY=1.259;entryDx=0;entryDy=0;entryPerimeter=0;" parent="1" source="whtN-cNZq2P0k4Z80Wnq-82" target="p2l66sYFrq5DHjrUDDRs-35" edge="1">
          <mxGeometry width="50" height="50" relative="1" as="geometry">
            <mxPoint x="150" y="898" as="sourcePoint" />
            <mxPoint x="228" y="670" as="targetPoint" />
          </mxGeometry>
        </mxCell>
        <mxCell id="whtN-cNZq2P0k4Z80Wnq-97" value="" style="endArrow=none;html=1;rounded=0;entryX=0;entryY=0.5;entryDx=0;entryDy=0;exitX=1.02;exitY=1.148;exitDx=0;exitDy=0;exitPerimeter=0;" parent="1" source="p2l66sYFrq5DHjrUDDRs-18" target="whtN-cNZq2P0k4Z80Wnq-92" edge="1">
          <mxGeometry width="50" height="50" relative="1" as="geometry">
            <mxPoint x="90" y="700" as="sourcePoint" />
            <mxPoint x="208" y="630" as="targetPoint" />
          </mxGeometry>
        </mxCell>
        <mxCell id="whtN-cNZq2P0k4Z80Wnq-98" value="" style="endArrow=none;html=1;rounded=0;exitX=1;exitY=0.5;exitDx=0;exitDy=0;entryX=0.824;entryY=1.311;entryDx=0;entryDy=0;entryPerimeter=0;" parent="1" source="whtN-cNZq2P0k4Z80Wnq-84" target="p2l66sYFrq5DHjrUDDRs-35" edge="1">
          <mxGeometry width="50" height="50" relative="1" as="geometry">
            <mxPoint x="110" y="640" as="sourcePoint" />
            <mxPoint x="400" y="560" as="targetPoint" />
          </mxGeometry>
        </mxCell>
        <mxCell id="whtN-cNZq2P0k4Z80Wnq-99" value="" style="endArrow=none;html=1;rounded=0;exitX=1;exitY=0;exitDx=0;exitDy=0;" parent="1" source="whtN-cNZq2P0k4Z80Wnq-92" edge="1">
          <mxGeometry width="50" height="50" relative="1" as="geometry">
            <mxPoint x="420" y="560" as="sourcePoint" />
            <mxPoint x="470" y="510" as="targetPoint" />
          </mxGeometry>
        </mxCell>
        <mxCell id="whtN-cNZq2P0k4Z80Wnq-101" value="" style="ellipse;whiteSpace=wrap;html=1;aspect=fixed;" parent="1" vertex="1">
          <mxGeometry x="620" y="735" width="30" height="30" as="geometry" />
        </mxCell>
        <mxCell id="whtN-cNZq2P0k4Z80Wnq-102" value="" style="ellipse;whiteSpace=wrap;html=1;aspect=fixed;" parent="1" vertex="1">
          <mxGeometry x="670" y="710" width="30" height="30" as="geometry" />
        </mxCell>
        <mxCell id="whtN-cNZq2P0k4Z80Wnq-106" value="uncertainty1" style="text;html=1;align=center;verticalAlign=middle;resizable=0;points=[];autosize=1;strokeColor=none;fillColor=none;" parent="1" vertex="1">
          <mxGeometry x="535" y="790" width="90" height="30" as="geometry" />
        </mxCell>
        <mxCell id="whtN-cNZq2P0k4Z80Wnq-108" value="group_name" style="text;html=1;align=center;verticalAlign=middle;resizable=0;points=[];autosize=1;strokeColor=none;fillColor=none;" parent="1" vertex="1">
          <mxGeometry x="620" y="768" width="90" height="30" as="geometry" />
        </mxCell>
        <mxCell id="whtN-cNZq2P0k4Z80Wnq-109" value="unknown_group" style="text;html=1;align=center;verticalAlign=middle;resizable=0;points=[];autosize=1;strokeColor=none;fillColor=none;" parent="1" vertex="1">
          <mxGeometry x="680" y="740" width="110" height="30" as="geometry" />
        </mxCell>
        <mxCell id="whtN-cNZq2P0k4Z80Wnq-112" value="" style="endArrow=classic;html=1;rounded=0;entryX=0.5;entryY=0;entryDx=0;entryDy=0;exitX=0.5;exitY=1;exitDx=0;exitDy=0;" parent="1" source="whtN-cNZq2P0k4Z80Wnq-191" target="whtN-cNZq2P0k4Z80Wnq-111" edge="1">
          <mxGeometry width="50" height="50" relative="1" as="geometry">
            <mxPoint x="485" y="510" as="sourcePoint" />
            <mxPoint x="510" y="610" as="targetPoint" />
          </mxGeometry>
        </mxCell>
        <mxCell id="whtN-cNZq2P0k4Z80Wnq-111" value="" style="ellipse;whiteSpace=wrap;html=1;aspect=fixed;" parent="1" vertex="1">
          <mxGeometry x="500" y="610" width="35" height="35" as="geometry" />
        </mxCell>
        <mxCell id="whtN-cNZq2P0k4Z80Wnq-113" value="terroristgroups" style="text;html=1;align=center;verticalAlign=middle;resizable=0;points=[];autosize=1;strokeColor=none;fillColor=none;" parent="1" vertex="1">
          <mxGeometry x="400" y="612.5" width="100" height="30" as="geometry" />
        </mxCell>
        <mxCell id="whtN-cNZq2P0k4Z80Wnq-114" value="" style="endArrow=none;html=1;rounded=0;entryX=1;entryY=1;entryDx=0;entryDy=0;" parent="1" source="whtN-cNZq2P0k4Z80Wnq-100" target="whtN-cNZq2P0k4Z80Wnq-111" edge="1">
          <mxGeometry width="50" height="50" relative="1" as="geometry">
            <mxPoint x="570" y="760" as="sourcePoint" />
            <mxPoint x="520" y="650" as="targetPoint" />
          </mxGeometry>
        </mxCell>
        <mxCell id="whtN-cNZq2P0k4Z80Wnq-117" value="" style="endArrow=none;html=1;rounded=0;" parent="1" target="whtN-cNZq2P0k4Z80Wnq-100" edge="1">
          <mxGeometry width="50" height="50" relative="1" as="geometry">
            <mxPoint x="570" y="760" as="sourcePoint" />
            <mxPoint x="520" y="650" as="targetPoint" />
          </mxGeometry>
        </mxCell>
        <mxCell id="whtN-cNZq2P0k4Z80Wnq-100" value="" style="ellipse;whiteSpace=wrap;html=1;aspect=fixed;" parent="1" vertex="1">
          <mxGeometry x="550" y="758" width="30" height="30" as="geometry" />
        </mxCell>
        <mxCell id="whtN-cNZq2P0k4Z80Wnq-118" value="" style="endArrow=none;html=1;rounded=0;entryX=1;entryY=0.5;entryDx=0;entryDy=0;exitX=0;exitY=0;exitDx=0;exitDy=0;" parent="1" source="whtN-cNZq2P0k4Z80Wnq-101" target="whtN-cNZq2P0k4Z80Wnq-111" edge="1">
          <mxGeometry width="50" height="50" relative="1" as="geometry">
            <mxPoint x="620" y="730" as="sourcePoint" />
            <mxPoint x="580" y="650" as="targetPoint" />
          </mxGeometry>
        </mxCell>
        <mxCell id="whtN-cNZq2P0k4Z80Wnq-119" value="" style="endArrow=none;html=1;rounded=0;entryX=1;entryY=0.5;entryDx=0;entryDy=0;exitX=0;exitY=0;exitDx=0;exitDy=0;" parent="1" source="whtN-cNZq2P0k4Z80Wnq-102" target="whtN-cNZq2P0k4Z80Wnq-111" edge="1">
          <mxGeometry width="50" height="50" relative="1" as="geometry">
            <mxPoint x="621" y="748" as="sourcePoint" />
            <mxPoint x="590" y="630" as="targetPoint" />
          </mxGeometry>
        </mxCell>
        <mxCell id="whtN-cNZq2P0k4Z80Wnq-120" value="" style="ellipse;whiteSpace=wrap;html=1;aspect=fixed;" parent="1" vertex="1">
          <mxGeometry x="830" y="710" width="30" height="30" as="geometry" />
        </mxCell>
        <mxCell id="whtN-cNZq2P0k4Z80Wnq-121" value="" style="ellipse;whiteSpace=wrap;html=1;aspect=fixed;" parent="1" vertex="1">
          <mxGeometry x="880" y="670" width="30" height="30" as="geometry" />
        </mxCell>
        <mxCell id="whtN-cNZq2P0k4Z80Wnq-122" value="" style="ellipse;whiteSpace=wrap;html=1;aspect=fixed;" parent="1" vertex="1">
          <mxGeometry x="900" y="630" width="30" height="30" as="geometry" />
        </mxCell>
        <mxCell id="whtN-cNZq2P0k4Z80Wnq-123" value="nationality1" style="text;html=1;align=center;verticalAlign=middle;resizable=0;points=[];autosize=1;strokeColor=none;fillColor=none;" parent="1" vertex="1">
          <mxGeometry x="850" y="738" width="80" height="30" as="geometry" />
        </mxCell>
        <mxCell id="whtN-cNZq2P0k4Z80Wnq-125" value="targsubtype1" style="text;html=1;align=center;verticalAlign=middle;resizable=0;points=[];autosize=1;strokeColor=none;fillColor=none;" parent="1" vertex="1">
          <mxGeometry x="900" y="690" width="90" height="30" as="geometry" />
        </mxCell>
        <mxCell id="whtN-cNZq2P0k4Z80Wnq-126" value="targtype1" style="text;html=1;align=center;verticalAlign=middle;resizable=0;points=[];autosize=1;strokeColor=none;fillColor=none;" parent="1" vertex="1">
          <mxGeometry x="930" y="645" width="70" height="30" as="geometry" />
        </mxCell>
        <mxCell id="whtN-cNZq2P0k4Z80Wnq-128" value="" style="ellipse;whiteSpace=wrap;html=1;aspect=fixed;" parent="1" vertex="1">
          <mxGeometry x="620" y="570" width="35" height="35" as="geometry" />
        </mxCell>
        <mxCell id="whtN-cNZq2P0k4Z80Wnq-131" value="Target" style="text;html=1;align=center;verticalAlign=middle;resizable=0;points=[];autosize=1;strokeColor=none;fillColor=none;" parent="1" vertex="1">
          <mxGeometry x="570" y="588" width="60" height="30" as="geometry" />
        </mxCell>
        <mxCell id="whtN-cNZq2P0k4Z80Wnq-132" value="" style="endArrow=none;html=1;rounded=0;entryX=1;entryY=1;entryDx=0;entryDy=0;" parent="1" target="whtN-cNZq2P0k4Z80Wnq-128" edge="1">
          <mxGeometry width="50" height="50" relative="1" as="geometry">
            <mxPoint x="840" y="710" as="sourcePoint" />
            <mxPoint x="890" y="660" as="targetPoint" />
          </mxGeometry>
        </mxCell>
        <mxCell id="whtN-cNZq2P0k4Z80Wnq-133" value="" style="endArrow=none;html=1;rounded=0;entryX=1;entryY=0.5;entryDx=0;entryDy=0;exitX=0;exitY=0.5;exitDx=0;exitDy=0;" parent="1" source="whtN-cNZq2P0k4Z80Wnq-121" target="whtN-cNZq2P0k4Z80Wnq-128" edge="1">
          <mxGeometry width="50" height="50" relative="1" as="geometry">
            <mxPoint x="930" y="720" as="sourcePoint" />
            <mxPoint x="740" y="610" as="targetPoint" />
          </mxGeometry>
        </mxCell>
        <mxCell id="whtN-cNZq2P0k4Z80Wnq-134" value="" style="endArrow=none;html=1;rounded=0;entryX=1;entryY=0.5;entryDx=0;entryDy=0;exitX=0;exitY=0;exitDx=0;exitDy=0;" parent="1" source="whtN-cNZq2P0k4Z80Wnq-122" target="whtN-cNZq2P0k4Z80Wnq-128" edge="1">
          <mxGeometry width="50" height="50" relative="1" as="geometry">
            <mxPoint x="980" y="700" as="sourcePoint" />
            <mxPoint x="790" y="590" as="targetPoint" />
          </mxGeometry>
        </mxCell>
        <mxCell id="whtN-cNZq2P0k4Z80Wnq-135" value="" style="endArrow=none;html=1;rounded=0;entryX=0.228;entryY=0.092;entryDx=0;entryDy=0;entryPerimeter=0;exitX=0;exitY=0;exitDx=0;exitDy=0;" parent="1" source="whtN-cNZq2P0k4Z80Wnq-128" target="p2l66sYFrq5DHjrUDDRs-52" edge="1">
          <mxGeometry width="50" height="50" relative="1" as="geometry">
            <mxPoint x="530" y="590" as="sourcePoint" />
            <mxPoint x="580" y="540" as="targetPoint" />
          </mxGeometry>
        </mxCell>
        <mxCell id="whtN-cNZq2P0k4Z80Wnq-136" value="" style="ellipse;whiteSpace=wrap;html=1;aspect=fixed;" parent="1" vertex="1">
          <mxGeometry x="900" y="575" width="30" height="30" as="geometry" />
        </mxCell>
        <mxCell id="whtN-cNZq2P0k4Z80Wnq-137" value="" style="ellipse;whiteSpace=wrap;html=1;aspect=fixed;" parent="1" vertex="1">
          <mxGeometry x="930" y="500" width="30" height="30" as="geometry" />
        </mxCell>
        <mxCell id="whtN-cNZq2P0k4Z80Wnq-139" value="" style="ellipse;whiteSpace=wrap;html=1;aspect=fixed;" parent="1" vertex="1">
          <mxGeometry x="910" y="535" width="30" height="30" as="geometry" />
        </mxCell>
        <mxCell id="whtN-cNZq2P0k4Z80Wnq-141" value="&#xa;&lt;span style=&quot;color: rgb(0, 0, 0); font-family: Helvetica; font-size: 12px; font-style: normal; font-variant-ligatures: normal; font-variant-caps: normal; font-weight: 400; letter-spacing: normal; orphans: 2; text-align: center; text-indent: 0px; text-transform: none; widows: 2; word-spacing: 0px; -webkit-text-stroke-width: 0px; white-space: nowrap; background-color: rgb(236, 236, 236); text-decoration-thickness: initial; text-decoration-style: initial; text-decoration-color: initial; display: inline !important; float: none;&quot;&gt;weaptype1&lt;/span&gt;&#xa;&#xa;" style="text;html=1;align=center;verticalAlign=middle;resizable=0;points=[];autosize=1;strokeColor=none;fillColor=none;" parent="1" vertex="1">
          <mxGeometry x="930" y="588" width="80" height="60" as="geometry" />
        </mxCell>
        <mxCell id="whtN-cNZq2P0k4Z80Wnq-142" value="weapsubtype1" style="text;html=1;align=center;verticalAlign=middle;resizable=0;points=[];autosize=1;strokeColor=none;fillColor=none;" parent="1" vertex="1">
          <mxGeometry x="940" y="550" width="100" height="30" as="geometry" />
        </mxCell>
        <mxCell id="whtN-cNZq2P0k4Z80Wnq-143" value="attacktype1" style="text;html=1;align=center;verticalAlign=middle;resizable=0;points=[];autosize=1;strokeColor=none;fillColor=none;" parent="1" vertex="1">
          <mxGeometry x="950" y="515" width="80" height="30" as="geometry" />
        </mxCell>
        <mxCell id="whtN-cNZq2P0k4Z80Wnq-145" value="" style="ellipse;whiteSpace=wrap;html=1;aspect=fixed;" parent="1" vertex="1">
          <mxGeometry x="700" y="498" width="35" height="35" as="geometry" />
        </mxCell>
        <mxCell id="whtN-cNZq2P0k4Z80Wnq-146" value="" style="endArrow=none;html=1;rounded=0;exitX=0.405;exitY=-0.194;exitDx=0;exitDy=0;exitPerimeter=0;" parent="1" source="p2l66sYFrq5DHjrUDDRs-52" edge="1">
          <mxGeometry width="50" height="50" relative="1" as="geometry">
            <mxPoint x="650" y="560" as="sourcePoint" />
            <mxPoint x="700" y="510" as="targetPoint" />
          </mxGeometry>
        </mxCell>
        <mxCell id="whtN-cNZq2P0k4Z80Wnq-147" value="" style="endArrow=none;html=1;rounded=0;exitX=1;exitY=0.5;exitDx=0;exitDy=0;" parent="1" source="whtN-cNZq2P0k4Z80Wnq-145" edge="1">
          <mxGeometry width="50" height="50" relative="1" as="geometry">
            <mxPoint x="880" y="560" as="sourcePoint" />
            <mxPoint x="930" y="510" as="targetPoint" />
          </mxGeometry>
        </mxCell>
        <mxCell id="whtN-cNZq2P0k4Z80Wnq-148" value="" style="endArrow=none;html=1;rounded=0;exitX=1;exitY=0.5;exitDx=0;exitDy=0;entryX=0;entryY=0.5;entryDx=0;entryDy=0;" parent="1" source="whtN-cNZq2P0k4Z80Wnq-145" target="whtN-cNZq2P0k4Z80Wnq-139" edge="1">
          <mxGeometry width="50" height="50" relative="1" as="geometry">
            <mxPoint x="790" y="556" as="sourcePoint" />
            <mxPoint x="910" y="540" as="targetPoint" />
          </mxGeometry>
        </mxCell>
        <mxCell id="whtN-cNZq2P0k4Z80Wnq-149" value="" style="endArrow=none;html=1;rounded=0;exitX=1;exitY=1;exitDx=0;exitDy=0;entryX=0;entryY=0.5;entryDx=0;entryDy=0;" parent="1" source="whtN-cNZq2P0k4Z80Wnq-145" target="whtN-cNZq2P0k4Z80Wnq-136" edge="1">
          <mxGeometry width="50" height="50" relative="1" as="geometry">
            <mxPoint x="780" y="566" as="sourcePoint" />
            <mxPoint x="975" y="560" as="targetPoint" />
          </mxGeometry>
        </mxCell>
        <mxCell id="whtN-cNZq2P0k4Z80Wnq-150" value="" style="ellipse;whiteSpace=wrap;html=1;aspect=fixed;" parent="1" vertex="1">
          <mxGeometry x="890" y="48" width="30" height="30" as="geometry" />
        </mxCell>
        <mxCell id="whtN-cNZq2P0k4Z80Wnq-151" value="" style="ellipse;whiteSpace=wrap;html=1;aspect=fixed;" parent="1" vertex="1">
          <mxGeometry x="940" y="70" width="30" height="30" as="geometry" />
        </mxCell>
        <mxCell id="whtN-cNZq2P0k4Z80Wnq-152" value="" style="ellipse;whiteSpace=wrap;html=1;aspect=fixed;direction=south;" parent="1" vertex="1">
          <mxGeometry x="970" y="128" width="30" height="30" as="geometry" />
        </mxCell>
        <mxCell id="whtN-cNZq2P0k4Z80Wnq-153" value="" style="ellipse;whiteSpace=wrap;html=1;aspect=fixed;" parent="1" vertex="1">
          <mxGeometry x="985" y="170" width="30" height="30" as="geometry" />
        </mxCell>
        <mxCell id="whtN-cNZq2P0k4Z80Wnq-154" value="" style="ellipse;whiteSpace=wrap;html=1;aspect=fixed;" parent="1" vertex="1">
          <mxGeometry x="975" y="228" width="30" height="30" as="geometry" />
        </mxCell>
        <mxCell id="whtN-cNZq2P0k4Z80Wnq-155" value="" style="ellipse;whiteSpace=wrap;html=1;aspect=fixed;" parent="1" vertex="1">
          <mxGeometry x="960" y="280" width="30" height="30" as="geometry" />
        </mxCell>
        <mxCell id="whtN-cNZq2P0k4Z80Wnq-156" value="" style="ellipse;whiteSpace=wrap;html=1;aspect=fixed;" parent="1" vertex="1">
          <mxGeometry x="940" y="330" width="30" height="30" as="geometry" />
        </mxCell>
        <mxCell id="whtN-cNZq2P0k4Z80Wnq-157" value="" style="ellipse;whiteSpace=wrap;html=1;aspect=fixed;" parent="1" vertex="1">
          <mxGeometry x="920" y="380" width="30" height="30" as="geometry" />
        </mxCell>
        <mxCell id="whtN-cNZq2P0k4Z80Wnq-158" value="provstate" style="text;html=1;align=center;verticalAlign=middle;resizable=0;points=[];autosize=1;strokeColor=none;fillColor=none;" parent="1" vertex="1">
          <mxGeometry x="910" y="30" width="70" height="30" as="geometry" />
        </mxCell>
        <mxCell id="whtN-cNZq2P0k4Z80Wnq-160" value="city" style="text;html=1;align=center;verticalAlign=middle;resizable=0;points=[];autosize=1;strokeColor=none;fillColor=none;" parent="1" vertex="1">
          <mxGeometry x="975" y="78" width="40" height="30" as="geometry" />
        </mxCell>
        <mxCell id="whtN-cNZq2P0k4Z80Wnq-161" value="country" style="text;html=1;align=center;verticalAlign=middle;resizable=0;points=[];autosize=1;strokeColor=none;fillColor=none;" parent="1" vertex="1">
          <mxGeometry x="990" y="130" width="60" height="30" as="geometry" />
        </mxCell>
        <mxCell id="whtN-cNZq2P0k4Z80Wnq-163" value="region" style="text;html=1;align=center;verticalAlign=middle;resizable=0;points=[];autosize=1;strokeColor=none;fillColor=none;" parent="1" vertex="1">
          <mxGeometry x="1000" y="190" width="60" height="30" as="geometry" />
        </mxCell>
        <mxCell id="whtN-cNZq2P0k4Z80Wnq-164" value="latitude" style="text;html=1;align=center;verticalAlign=middle;resizable=0;points=[];autosize=1;strokeColor=none;fillColor=none;" parent="1" vertex="1">
          <mxGeometry x="1000" y="238" width="60" height="30" as="geometry" />
        </mxCell>
        <mxCell id="whtN-cNZq2P0k4Z80Wnq-165" value="longitude" style="text;html=1;align=center;verticalAlign=middle;resizable=0;points=[];autosize=1;strokeColor=none;fillColor=none;" parent="1" vertex="1">
          <mxGeometry x="975" y="310" width="70" height="30" as="geometry" />
        </mxCell>
        <mxCell id="whtN-cNZq2P0k4Z80Wnq-167" value="vicinity" style="text;html=1;align=center;verticalAlign=middle;resizable=0;points=[];autosize=1;strokeColor=none;fillColor=none;" parent="1" vertex="1">
          <mxGeometry x="980" y="350" width="60" height="30" as="geometry" />
        </mxCell>
        <mxCell id="whtN-cNZq2P0k4Z80Wnq-168" value="unknown_location" style="text;html=1;align=center;verticalAlign=middle;resizable=0;points=[];autosize=1;strokeColor=none;fillColor=none;" parent="1" vertex="1">
          <mxGeometry x="950" y="398.5" width="120" height="30" as="geometry" />
        </mxCell>
        <mxCell id="whtN-cNZq2P0k4Z80Wnq-169" value="" style="ellipse;whiteSpace=wrap;html=1;aspect=fixed;" parent="1" vertex="1">
          <mxGeometry x="890" y="430" width="30" height="30" as="geometry" />
        </mxCell>
        <mxCell id="whtN-cNZq2P0k4Z80Wnq-170" value="specificity" style="text;html=1;align=center;verticalAlign=middle;resizable=0;points=[];autosize=1;strokeColor=none;fillColor=none;" parent="1" vertex="1">
          <mxGeometry x="900" y="448" width="80" height="30" as="geometry" />
        </mxCell>
        <mxCell id="whtN-cNZq2P0k4Z80Wnq-176" value="" style="ellipse;whiteSpace=wrap;html=1;aspect=fixed;" parent="1" vertex="1">
          <mxGeometry x="620" y="370" width="30" height="30" as="geometry" />
        </mxCell>
        <mxCell id="whtN-cNZq2P0k4Z80Wnq-177" value="location" style="text;html=1;align=center;verticalAlign=middle;resizable=0;points=[];autosize=1;strokeColor=none;fillColor=none;" parent="1" vertex="1">
          <mxGeometry x="635" y="410" width="60" height="30" as="geometry" />
        </mxCell>
        <mxCell id="whtN-cNZq2P0k4Z80Wnq-178" value="" style="endArrow=none;html=1;rounded=0;entryX=0;entryY=1;entryDx=0;entryDy=0;" parent="1" target="whtN-cNZq2P0k4Z80Wnq-176" edge="1">
          <mxGeometry width="50" height="50" relative="1" as="geometry">
            <mxPoint x="510" y="500" as="sourcePoint" />
            <mxPoint x="560" y="450" as="targetPoint" />
          </mxGeometry>
        </mxCell>
        <mxCell id="whtN-cNZq2P0k4Z80Wnq-179" value="" style="endArrow=none;html=1;rounded=0;entryX=0;entryY=1;entryDx=0;entryDy=0;" parent="1" target="whtN-cNZq2P0k4Z80Wnq-150" edge="1">
          <mxGeometry width="50" height="50" relative="1" as="geometry">
            <mxPoint x="650" y="380" as="sourcePoint" />
            <mxPoint x="700" y="330" as="targetPoint" />
          </mxGeometry>
        </mxCell>
        <mxCell id="whtN-cNZq2P0k4Z80Wnq-180" value="" style="endArrow=none;html=1;rounded=0;entryX=0;entryY=1;entryDx=0;entryDy=0;exitX=1;exitY=0.5;exitDx=0;exitDy=0;" parent="1" source="whtN-cNZq2P0k4Z80Wnq-176" target="whtN-cNZq2P0k4Z80Wnq-151" edge="1">
          <mxGeometry width="50" height="50" relative="1" as="geometry">
            <mxPoint x="760" y="626" as="sourcePoint" />
            <mxPoint x="1004" y="320" as="targetPoint" />
          </mxGeometry>
        </mxCell>
        <mxCell id="whtN-cNZq2P0k4Z80Wnq-181" value="" style="endArrow=none;html=1;rounded=0;entryX=1;entryY=1;entryDx=0;entryDy=0;exitX=1;exitY=0.5;exitDx=0;exitDy=0;" parent="1" source="whtN-cNZq2P0k4Z80Wnq-176" target="whtN-cNZq2P0k4Z80Wnq-152" edge="1">
          <mxGeometry width="50" height="50" relative="1" as="geometry">
            <mxPoint x="830" y="596" as="sourcePoint" />
            <mxPoint x="1074" y="290" as="targetPoint" />
          </mxGeometry>
        </mxCell>
        <mxCell id="whtN-cNZq2P0k4Z80Wnq-182" value="" style="endArrow=none;html=1;rounded=0;entryX=0;entryY=0.5;entryDx=0;entryDy=0;exitX=1;exitY=0.5;exitDx=0;exitDy=0;" parent="1" source="whtN-cNZq2P0k4Z80Wnq-176" target="whtN-cNZq2P0k4Z80Wnq-153" edge="1">
          <mxGeometry width="50" height="50" relative="1" as="geometry">
            <mxPoint x="800" y="656" as="sourcePoint" />
            <mxPoint x="1044" y="350" as="targetPoint" />
          </mxGeometry>
        </mxCell>
        <mxCell id="whtN-cNZq2P0k4Z80Wnq-183" value="" style="endArrow=none;html=1;rounded=0;entryX=0;entryY=0.5;entryDx=0;entryDy=0;exitX=1;exitY=0.5;exitDx=0;exitDy=0;" parent="1" source="whtN-cNZq2P0k4Z80Wnq-176" target="whtN-cNZq2P0k4Z80Wnq-154" edge="1">
          <mxGeometry width="50" height="50" relative="1" as="geometry">
            <mxPoint x="790" y="686" as="sourcePoint" />
            <mxPoint x="1034" y="380" as="targetPoint" />
          </mxGeometry>
        </mxCell>
        <mxCell id="whtN-cNZq2P0k4Z80Wnq-184" value="" style="endArrow=none;html=1;rounded=0;entryX=0;entryY=0.5;entryDx=0;entryDy=0;" parent="1" source="whtN-cNZq2P0k4Z80Wnq-176" target="whtN-cNZq2P0k4Z80Wnq-155" edge="1">
          <mxGeometry width="50" height="50" relative="1" as="geometry">
            <mxPoint x="830" y="686" as="sourcePoint" />
            <mxPoint x="1074" y="380" as="targetPoint" />
          </mxGeometry>
        </mxCell>
        <mxCell id="whtN-cNZq2P0k4Z80Wnq-185" value="" style="endArrow=none;html=1;rounded=0;entryX=0;entryY=0.5;entryDx=0;entryDy=0;exitX=1;exitY=0.5;exitDx=0;exitDy=0;" parent="1" source="whtN-cNZq2P0k4Z80Wnq-176" target="whtN-cNZq2P0k4Z80Wnq-156" edge="1">
          <mxGeometry width="50" height="50" relative="1" as="geometry">
            <mxPoint x="780" y="736" as="sourcePoint" />
            <mxPoint x="1024" y="430" as="targetPoint" />
          </mxGeometry>
        </mxCell>
        <mxCell id="whtN-cNZq2P0k4Z80Wnq-186" value="" style="endArrow=none;html=1;rounded=0;entryX=0;entryY=0.5;entryDx=0;entryDy=0;" parent="1" target="whtN-cNZq2P0k4Z80Wnq-157" edge="1">
          <mxGeometry width="50" height="50" relative="1" as="geometry">
            <mxPoint x="650" y="388" as="sourcePoint" />
            <mxPoint x="1034" y="420" as="targetPoint" />
          </mxGeometry>
        </mxCell>
        <mxCell id="whtN-cNZq2P0k4Z80Wnq-187" value="" style="endArrow=none;html=1;rounded=0;entryX=0;entryY=0;entryDx=0;entryDy=0;exitX=1;exitY=1;exitDx=0;exitDy=0;" parent="1" source="whtN-cNZq2P0k4Z80Wnq-176" target="whtN-cNZq2P0k4Z80Wnq-169" edge="1">
          <mxGeometry width="50" height="50" relative="1" as="geometry">
            <mxPoint x="760" y="736" as="sourcePoint" />
            <mxPoint x="1004" y="430" as="targetPoint" />
          </mxGeometry>
        </mxCell>
        <mxCell id="whtN-cNZq2P0k4Z80Wnq-80" value="" style="ellipse;whiteSpace=wrap;html=1;aspect=fixed;" parent="1" vertex="1">
          <mxGeometry x="180" y="758" width="30" height="30" as="geometry" />
        </mxCell>
        <mxCell id="whtN-cNZq2P0k4Z80Wnq-190" value="" style="endArrow=classic;html=1;rounded=0;entryX=0.5;entryY=0;entryDx=0;entryDy=0;exitX=0.5;exitY=1;exitDx=0;exitDy=0;" parent="1" target="whtN-cNZq2P0k4Z80Wnq-191" edge="1">
          <mxGeometry width="50" height="50" relative="1" as="geometry">
            <mxPoint x="485" y="510" as="sourcePoint" />
            <mxPoint x="518" y="610" as="targetPoint" />
          </mxGeometry>
        </mxCell>
        <mxCell id="whtN-cNZq2P0k4Z80Wnq-191" value="" style="ellipse;whiteSpace=wrap;html=1;aspect=fixed;" parent="1" vertex="1">
          <mxGeometry x="438" y="458" width="72" height="72" as="geometry" />
        </mxCell>
      </root>
    </mxGraphModel>
  </diagram>
</mxfile>
